<svg width="15" height="15" viewBox="0 0 15 15" fill="none" xmlns="http://www.w3.org/2000/svg">
<path d="M0.292893 13.2929C-0.0976311 13.6834 -0.0976311 14.3166 0.292893 14.7071C0.683418 15.0976 1.31658 15.0976 1.70711 14.7071L0.292893 13.2929ZM14.7279 1.27208C14.7279 0.719793 14.2802 0.272078 13.7279 0.272078L4.72792 0.272078C4.17564 0.272078 3.72792 0.719793 3.72792 1.27208C3.72792 1.82436 4.17564 2.27208 4.72792 2.27208H12.7279V10.2721C12.7279 10.8244 13.1756 11.2721 13.7279 11.2721C14.2802 11.2721 14.7279 10.8244 14.7279 10.2721L14.7279 1.27208ZM1.70711 14.7071L14.435 1.97918L13.0208 0.564971L0.292893 13.2929L1.70711 14.7071Z" fill="white"/>
</svg>
