<svg width="32" height="32" viewBox="0 0 32 32" fill="none" xmlns="http://www.w3.org/2000/svg">
<g clip-path="url(#clip0_389_24)">
<path fill-rule="evenodd" clip-rule="evenodd" d="M1.76488 5.92954e-08H30.2336C31.2088 -0.000249941 31.9995 0.790063 32 1.76488V30.2344C31.9997 31.2097 31.209 32.0003 30.2336 32H22.0938V19.625H26.2656L26.8906 14.7812H22.0938V11.6962C22.0938 10.2971 22.4822 9.34375 24.4885 9.34375H27.0312V5.02319C26.5889 4.96438 25.0711 4.83275 23.3049 4.83275C19.6174 4.83275 17.0938 7.08275 17.0938 11.2165V14.7812H12.9375V19.625H17.0938V32H1.76637C0.79125 32.0003 0.000500059 31.2099 5.92954e-08 30.2351V1.76637C-0.000249941 0.79125 0.790063 0.000500059 1.76488 5.92954e-08Z" fill="black"/>
</g>
<defs>
<clipPath id="clip0_389_24">
<rect width="32" height="32" rx="8" fill="white"/>
</clipPath>
</defs>
</svg>
