<svg width="33" height="32" viewBox="0 0 33 32" fill="none" xmlns="http://www.w3.org/2000/svg">
<g clip-path="url(#clip0_389_2)">
<path d="M31.9692 9.40809C31.8942 7.70776 31.6192 6.5389 31.2253 5.52595C30.819 4.45081 30.1938 3.48824 29.3749 2.68803C28.5746 1.87537 27.6057 1.24387 26.543 0.843915C25.5243 0.450088 24.3615 0.175034 22.6612 0.100145C20.9482 0.0187537 20.4044 0 16.0598 0C11.7152 0 11.1714 0.0187537 9.46473 0.0937683C7.76446 0.168783 6.59554 0.443962 5.58291 0.837539C4.50745 1.24387 3.54488 1.86899 2.74467 2.68803C1.93201 3.48818 1.30082 4.45712 0.900555 5.51983C0.506729 6.5389 0.231737 7.7015 0.156785 9.40171C0.0754568 11.1147 0.0566406 11.6585 0.0566406 16.0031C0.0566406 20.3477 0.0754568 20.8916 0.150409 22.5982C0.225424 24.2985 0.500602 25.4673 0.894492 26.4803C1.30082 27.5554 1.93201 28.518 2.74467 29.3182C3.54488 30.1309 4.51382 30.7624 5.57653 31.1623C6.59548 31.5562 7.75808 31.8312 9.45866 31.9061C11.165 31.9814 11.7091 31.9999 16.0537 31.9999C20.3983 31.9999 20.9421 31.9814 22.6487 31.9061C24.349 31.8312 25.5179 31.5562 26.5306 31.1623C27.5941 30.7511 28.56 30.1222 29.3663 29.316C30.1727 28.5097 30.8016 27.5438 31.2129 26.4803C31.6065 25.4613 31.8817 24.2984 31.9567 22.5982C32.0317 20.8916 32.0505 20.3477 32.0505 16.0031C32.0505 11.6585 32.0441 11.1147 31.9692 9.40809ZM29.0875 22.4731C29.0186 24.0359 28.7561 24.8799 28.5373 25.4425C27.9996 26.8365 26.8932 27.943 25.4991 28.4807C24.9365 28.6995 24.0865 28.962 22.5298 29.0305C20.842 29.1058 20.3358 29.1243 16.0661 29.1243C11.7965 29.1243 11.284 29.1058 9.60219 29.0305C8.03939 28.962 7.19547 28.6995 6.63286 28.4807C5.93917 28.2243 5.30773 27.8179 4.79513 27.2866C4.26378 26.7677 3.85745 26.1426 3.60102 25.4488C3.38223 24.8862 3.11974 24.0359 3.05116 22.4795C2.9759 20.7917 2.95739 20.2852 2.95739 16.0156C2.95739 11.7459 2.9759 11.2334 3.05116 9.55193C3.11974 7.98912 3.38223 7.14521 3.60102 6.5826C3.85745 5.88859 4.26377 5.25728 4.80151 4.74455C5.32011 4.2132 5.94523 3.80687 6.63924 3.55076C7.20185 3.33196 8.05214 3.06941 9.60857 3.00059C11.2964 2.92557 11.8029 2.90682 16.0722 2.90682C20.3482 2.90682 20.8544 2.92557 22.5362 3.00059C24.099 3.06947 24.9429 3.3319 25.5055 3.55069C26.1992 3.80687 26.8307 4.2132 27.3432 4.74455C27.8746 5.26347 28.2809 5.88859 28.5373 6.5826C28.7561 7.14521 29.0186 7.99519 29.0874 9.55193C29.1625 11.2398 29.1812 11.7459 29.1812 16.0156C29.1812 20.2852 29.1625 20.7853 29.0875 22.4731Z" fill="black"/>
<path d="M16.0602 7.78313C11.5219 7.78313 7.83984 11.465 7.83984 16.0035C7.83984 20.542 11.5219 24.2238 16.0602 24.2238C20.5986 24.2238 24.2806 20.542 24.2806 16.0035C24.2806 11.465 20.5986 7.78313 16.0602 7.78313ZM16.0602 21.3358C13.116 21.3358 10.7278 18.9479 10.7278 16.0035C10.7278 13.059 13.116 10.6712 16.0601 10.6712C19.0046 10.6712 21.3925 13.059 21.3925 16.0035C21.3925 18.9479 19.0045 21.3358 16.0602 21.3358ZM26.5249 7.45806C26.5249 8.51789 25.6655 9.37719 24.6055 9.37719C23.5457 9.37719 22.6864 8.51789 22.6864 7.45806C22.6864 6.39811 23.5457 5.53906 24.6056 5.53906C25.6655 5.53906 26.5249 6.39804 26.5249 7.45806Z" fill="black"/>
</g>
<defs>
<clipPath id="clip0_389_2">
<rect width="33" height="32" fill="white"/>
</clipPath>
</defs>
</svg>
