<svg width="32" height="32" viewBox="0 0 32 32" fill="none" xmlns="http://www.w3.org/2000/svg">
<g clip-path="url(#clip0_389_17)">
<path d="M23.9556 0.0117188H8.01903C3.60349 0.0117188 0 3.61521 0 8.03075V23.9927C0 28.3829 3.60349 31.9863 8.01903 31.9863H23.981C28.3965 31.9863 32 28.3829 32 23.9673V8.03075C31.9746 3.61521 28.3711 0.0117188 23.9556 0.0117188ZM10.6582 25.8959H6.0904V12.7001H10.6582V25.8959ZM8.34893 10.6699C7.05472 10.6699 6.01427 9.62948 6.01427 8.33527C6.01427 7.04106 7.05472 6.00062 8.34893 6.00062C9.64314 6.00062 10.6836 7.04106 10.6836 8.33527C10.6582 9.62948 9.61776 10.6699 8.34893 10.6699ZM25.9096 25.8959H22.0777V19.501C22.0777 17.953 21.8747 15.9737 19.7684 15.9737C17.6114 15.9737 17.2561 17.6485 17.2561 19.3995V25.8959H13.4496V12.7001H17.0024V14.4764H17.1039C17.6622 13.4614 18.9564 12.6747 20.9865 12.6747C25.1737 12.6747 25.9096 15.0855 25.9096 18.6636V25.8959Z" fill="black"/>
</g>
<defs>
<clipPath id="clip0_389_17">
<rect width="32" height="32" fill="white"/>
</clipPath>
</defs>
</svg>
